<?xml version="1.0" encoding="utf-8"?>
<!-- Generator: Adobe Illustrator 24.0.0, SVG Export Plug-In . SVG Version: 6.00 Build 0)  -->
<svg version="1.1" id="Layer_1" xmlns="http://www.w3.org/2000/svg" xmlns:xlink="http://www.w3.org/1999/xlink" x="0px" y="0px"
	 viewBox="0 0 1920 1080" style="enable-background:new 0 0 1920 1080;" xml:space="preserve">
<style type="text/css">
	.st0{fill:#286EE4;}
</style>
<g>
	<path class="st0" d="M393.63,36.19v371.48h48.99v2.69H293.49v-2.69h48.45V38.88L201.43,410.36h-3.77L57.15,41.03v366.63h48.45v2.69
		H6v-2.69h48.45V36.19H6V33.5h99.6l118.98,308.49L341.41,33.5h101.21v2.69H393.63z"/>
	<path class="st0" d="M655.82,407.67v2.69H506.69v-2.69h48.45L508.3,281.15H372.63l-46.3,126.52h39.84v2.69h-76.99v-2.69h33.92
		L462.54,29.73h3.77l140.52,377.94H655.82z M507.23,278.46l-67.3-179.82l-66.22,179.82H507.23z"/>
	<path class="st0" d="M827.56,33.5v100.14h-2.69c-6.46-55.45-40.92-97.45-105.52-97.45h-28.53v371.48h48.99v2.69H590.14v-2.69h48.99
		V36.19H610.6c-64.6,0-98.52,41.99-105.52,97.45h-2.69V33.5H827.56z"/>
	<path class="st0" d="M1133.9,36.19v371.48h48.99v2.69h-149.67v-2.69h48.99V218.16H895.4v189.51h48.99v2.69H795.26v-2.69h48.45
		V36.19h-48.45V33.5h149.13v2.69H895.4v179.28h186.82V36.19h-48.99V33.5h149.67v2.69H1133.9z"/>
	<path class="st0" d="M1224.35,36.19v371.48h48.45v2.69h-149.13v-2.69h48.99V36.19h-48.99V33.5h149.13v2.69H1224.35z"/>
	<path class="st0" d="M1314.25,36.19v371.48h48.45v2.69h-149.13v-2.69h48.99V36.19h-48.99V33.5h149.13v2.69H1314.25z"/>
	<path class="st0" d="M1598.51,294.61v115.75h-295.03v-2.69h48.45V36.19h-48.45V33.5h274.57v94.75h-2.69
		c-4.85-54.91-32.84-92.06-95.29-92.06h-76.45v173.9h32.3c55.45,0,74.3-29.07,76.99-76.99h2.69v156.13h-2.69
		c-2.69-47.38-21.54-76.45-76.99-76.45h-32.3v194.89h97.45c62.45,0,91.52-51.68,94.75-113.06H1598.51z"/>
	<path class="st0" d="M1921,36.19h-48.99V290.3c0,85.06-50.61,125.44-124.9,125.44c-83.45,0-137.29-31.76-137.29-127.6V36.19h-48.99
		V33.5h149.13v2.69h-48.45v251.96c0,80.22,25.3,124.36,90.99,124.36c74.3,0,116.83-45.22,116.83-122.21V36.19h-48.45V33.5H1921
		V36.19z"/>
</g>
<g>
	<path class="st0" d="M319.69,918.06v122.85H6v-2.86h52V643.79H6v-2.86h158.28v2.86h-51.43v394.26H215.7
		c66.28,0,97.71-54.85,101.14-119.99H319.69z"/>
	<path class="st0" d="M557.39,1038.05v2.86H399.11v-2.86h51.43l-49.71-134.28H256.83l-49.14,134.28h42.28v2.86h-81.71v-2.86h36
		l147.99-401.12h4l149.13,401.12H557.39z M399.68,900.92l-71.42-190.85l-70.28,190.85H399.68z"/>
	<path class="st0" d="M815.09,1025.48c-1.71,2.29-15.43,23.43-49.71,23.43c-57.71,0-85.71-19.43-85.71-121.71
		c0-82.28-40.57-90.85-102.28-90.85h-48v201.7h52v2.86H423.11v-2.86h52V643.79h-52v-2.86h158.28c82.85,0,141.13,29.14,141.13,101.71
		c0,58.28-45.71,86.85-109.14,92c78.85,5.71,126.85,36,126.85,118.85c0,61.71,5.71,89.14,37.71,89.14
		c18.86,0,32.57-15.43,35.43-19.43L815.09,1025.48z M589.96,833.49c61.14,0,74.85-44.57,74.85-90.85
		c0-53.71-13.14-98.85-82.85-98.85h-52.57v189.7H589.96z"/>
	<path class="st0" d="M1109.93,1025.48c-1.71,2.29-15.43,23.43-49.71,23.43c-57.71,0-85.71-19.43-85.71-121.71
		c0-82.28-40.57-90.85-102.28-90.85h-48v201.7h52v2.86H717.95v-2.86h52V643.79h-52v-2.86h158.28c82.85,0,141.13,29.14,141.13,101.71
		c0,58.28-45.71,86.85-109.14,92c78.85,5.71,126.85,36,126.85,118.85c0,61.71,5.71,89.14,37.71,89.14
		c18.86,0,32.57-15.43,35.43-19.43L1109.93,1025.48z M884.8,833.49c61.14,0,74.85-44.57,74.85-90.85
		c0-53.71-13.14-98.85-82.85-98.85h-52.57v189.7H884.8z"/>
	<path class="st0" d="M1397.91,840.92c0,108.57-79.42,205.7-198.27,205.7c-118.85,0-198.27-97.14-198.27-205.7
		c0-109.14,79.42-205.7,198.27-205.7C1318.49,635.22,1397.91,731.78,1397.91,840.92z M1340.2,840.92
		c0-82.85-28-202.85-140.56-202.85c-111.99,0-139.99,119.99-139.99,202.85c0,82.28,28,202.85,139.99,202.85
		C1312.2,1043.76,1340.2,923.2,1340.2,840.92z"/>
	<path class="st0" d="M1700.17,643.79h-52v269.7c0,90.28-53.71,133.13-132.56,133.13c-88.57,0-145.71-33.71-145.71-135.42V643.79
		h-52v-2.86h158.28v2.86h-51.43V911.2c0,85.14,26.86,131.99,96.57,131.99c78.85,0,123.99-48,123.99-129.71v-269.7h-51.43v-2.86
		h106.28V643.79z"/>
	<path class="st0" d="M1919.01,640.93v2.86h-44.57l-110.85,208.56v185.7h52v2.86h-158.28v-2.86h52V870.06l-129.14-226.27h-45.71
		v-2.86h158.85v2.86h-49.14l117.71,206.85l109.71-206.85h-49.71v-2.86H1919.01z"/>
</g>
<path class="st0" d="M105.23,451.91v35.91h-0.82c-2.04-20.81-12.45-34.89-36.12-34.89H39.32v69.79h12.04
	c21.22,0,28.36-11.02,29.38-28.98h0.82v58.97h-0.82c-1.02-17.96-8.16-28.98-29.38-28.98H39.32v69.99h18.37v1.02H1.16v-1.02h18.57
	v-140.8H1.16v-1.02H105.23z"/>
<path class="st0" d="M232.97,589.24c-0.61,0.82-5.51,8.37-17.75,8.37c-20.61,0-30.61-6.94-30.61-43.46
	c0-29.38-14.49-32.44-36.53-32.44h-17.14v72.03h18.57v1.02H92.98v-1.02h18.57v-140.8H92.98v-1.02h56.52
	c29.59,0,50.4,10.41,50.4,36.32c0,20.81-16.32,31.02-38.97,32.85c28.16,2.04,45.3,12.86,45.3,42.44c0,22.04,2.04,31.83,13.47,31.83
	c6.73,0,11.63-5.51,12.65-6.94L232.97,589.24z M152.57,520.68c21.83,0,26.73-15.92,26.73-32.45c0-19.18-4.69-35.3-29.59-35.3h-18.77
	v67.75H152.57z"/>
<path class="st0" d="M335.81,523.33c0,38.77-28.36,73.46-70.81,73.46c-42.44,0-70.81-34.69-70.81-73.46
	c0-38.97,28.36-73.46,70.81-73.46C307.45,449.87,335.81,484.35,335.81,523.33z M315.2,523.33c0-29.59-10-72.44-50.2-72.44
	c-39.99,0-49.99,42.85-49.99,72.44c0,29.38,10,72.44,49.99,72.44C305.21,595.77,315.2,552.71,315.2,523.33z"/>
<path class="st0" d="M434.99,451.91v1.02h-18.57v143.25h-2.04l-95.91-136.51v134.06h18.37v1.02h-37.75v-1.02h18.37V458.44
	l-3.88-5.51h-14.49v-1.02H335l80.4,112.43V452.93h-18.16v-1.02H434.99z"/>
<path class="st0" d="M544.97,451.91v37.95h-1.02c-2.45-21.02-15.51-36.93-40-36.93h-10.81v140.8h18.57v1.02h-56.73v-1.02h18.57
	v-140.8h-10.81c-24.49,0-37.34,15.92-39.99,36.93h-1.02v-37.95H544.97z"/>
<path class="st0" d="M611.9,528.84v1.02h-68.97v-1.02H611.9z"/>
<path class="st0" d="M719.64,550.88v43.87H607.82v-1.02h18.36v-140.8h-18.36v-1.02h104.07v35.91h-1.02
	c-1.84-20.81-12.45-34.89-36.12-34.89h-28.98v65.91h12.24c21.02,0,28.16-11.02,29.18-29.18h1.02v59.18h-1.02
	c-1.02-17.96-8.16-28.98-29.18-28.98h-12.24v73.87h36.93c23.67,0,34.69-19.59,35.91-42.85H719.64z"/>
<path class="st0" d="M843.3,451.91v1.02h-18.57v143.25h-2.04l-95.91-136.51v134.06h18.37v1.02H707.4v-1.02h18.37V458.44l-3.88-5.51
	H707.4v-1.02h35.91l80.4,112.43V452.93h-18.16v-1.02H843.3z"/>
<path class="st0" d="M953.7,523.33c0,33.47-17.34,71.42-80.4,71.42h-59.58v-1.02h18.57v-140.8h-18.57v-1.02h59.58
	C936.35,451.91,953.7,489.66,953.7,523.33z M933.09,523.33c0-29.59-6.73-70.4-59.79-70.4h-21.63v140.8h21.63
	C926.35,593.73,933.09,552.71,933.09,523.33z"/>
<path class="st0" d="M1144.69,523.33c0,33.47-17.34,71.42-80.4,71.42h-59.58v-1.02h18.57v-140.8h-18.57v-1.02h59.58
	C1127.35,451.91,1144.69,489.66,1144.69,523.33z M1124.08,523.33c0-29.59-6.73-70.4-59.79-70.4h-21.63v140.8h21.63
	C1117.35,593.73,1124.08,552.71,1124.08,523.33z"/>
<path class="st0" d="M1227.95,550.88v43.87h-111.82v-1.02h18.37v-140.8h-18.37v-1.02h104.07v35.91h-1.02
	c-1.84-20.81-12.45-34.89-36.12-34.89h-28.98v65.91h12.24c21.02,0,28.16-11.02,29.18-29.18h1.02v59.18h-1.02
	c-1.02-17.96-8.16-28.98-29.18-28.98h-12.24v73.87h36.93c23.67,0,34.69-19.59,35.91-42.85H1227.95z"/>
<path class="st0" d="M1336.31,452.93h-12.86l-52.85,143.04h-1.43l-53.26-143.04h-18.57v-1.02h56.52v1.02h-18.36l43.67,116.92
	l43.26-116.92h-15.3v-1.02h29.18V452.93z"/>
<path class="st0" d="M1414.46,550.88v43.87h-111.82v-1.02H1321v-140.8h-18.37v-1.02h104.07v35.91h-1.02
	c-1.84-20.81-12.45-34.89-36.12-34.89h-28.98v65.91h12.24c21.02,0,28.16-11.02,29.18-29.18h1.02v59.18h-1.02
	c-1.02-17.96-8.16-28.98-29.18-28.98h-12.24v73.87h36.93c23.67,0,34.69-19.59,35.91-42.85H1414.46z"/>
<path class="st0" d="M1514.24,550.88v43.87h-112.03v-1.02h18.57v-140.8h-18.57v-1.02h56.52v1.02h-18.37v140.8h36.73
	c23.67,0,34.89-19.59,36.12-42.85H1514.24z"/>
<path class="st0" d="M1623.21,523.33c0,38.77-28.36,73.46-70.81,73.46s-70.81-34.69-70.81-73.46c0-38.97,28.36-73.46,70.81-73.46
	S1623.21,484.35,1623.21,523.33z M1602.6,523.33c0-29.59-10-72.44-50.2-72.44c-40,0-49.99,42.85-49.99,72.44
	c0,29.38,10,72.44,49.99,72.44C1592.6,595.77,1602.6,552.71,1602.6,523.33z"/>
<path class="st0" d="M1703.61,491.09c0,25.92-19.79,39.38-51.63,39.38h-19.18v63.26h18.57v1.02h-56.73v-1.02h18.57v-140.8h-18.57
	v-1.02h53.67C1683.21,451.91,1703.61,465.17,1703.61,491.09z M1683,491.09c0-19.18-4.49-38.16-34.49-38.16h-15.71v76.52h18.57
	C1678.51,529.45,1683,510.27,1683,491.09z"/>
<path class="st0" d="M1788.9,550.88v43.87h-111.82v-1.02h18.37v-140.8h-18.37v-1.02h104.07v35.91h-1.02
	c-1.84-20.81-12.45-34.89-36.12-34.89h-28.98v65.91h12.24c21.02,0,28.16-11.02,29.18-29.18h1.02v59.18h-1.02
	c-1.02-17.96-8.16-28.98-29.18-28.98h-12.24v73.87h36.93c23.67,0,34.69-19.59,35.91-42.85H1788.9z"/>
<path class="st0" d="M1916.65,589.24c-0.61,0.82-5.51,8.37-17.75,8.37c-20.61,0-30.61-6.94-30.61-43.46
	c0-29.38-14.49-32.44-36.53-32.44h-17.14v72.03h18.57v1.02h-56.52v-1.02h18.57v-140.8h-18.57v-1.02h56.52
	c29.59,0,50.4,10.41,50.4,36.32c0,20.81-16.32,31.02-38.97,32.85c28.16,2.04,45.3,12.86,45.3,42.44c0,22.04,2.04,31.83,13.47,31.83
	c6.73,0,11.63-5.51,12.65-6.94L1916.65,589.24z M1836.25,520.68c21.83,0,26.73-15.92,26.73-32.45c0-19.18-4.69-35.3-29.59-35.3
	h-18.77v67.75H1836.25z"/>
<g>
	<path class="st0" d="M1189.61,898.75c1.71,0.43,21.57,4.29,21.57,21.29c0,6.86-4.14,14-10.14,20.72c5,6.29,8.43,14,8.43,24.57
		c0,14.29-8.43,37.43-27,37.43c-14.72,0-23.58-14.86-27.72-25.15c-9.14,6.29-15.43,9.43-24.29,9.43
		c-15.29,0-23.86-12.86-23.86-24.29c0-9,4.43-23.29,17.57-23.29c15,0,22.86,18.29,26,26.86c4.86-3.43,10.43-7.72,17.43-12.72
		c10.14-7.43,18.57-14.14,25-20.15c-9.57-7.43-21-10.57-26.86-10.57c-4.72,0-8.14,2-8.14,11h-0.71v-33.86h0.71
		c0,9.57,3.57,13.43,15,20.15c6.29,3.72,13.86,7.57,20.43,12.72c8-7.72,12.57-14.57,12.57-20.72c0-9.43-15-12.57-16.15-12.86
		L1189.61,898.75z M1200.61,941.33c-8.43,9.57-20.29,18.29-29.29,24.58c-6.57,4.57-11.72,8.29-16.15,11.43
		c3.57,7.43,10.86,13,26.43,13c19.72,0,27.15-10.72,27.15-25C1208.76,955.48,1205.47,947.48,1200.61,941.33z M1125.74,976.19
		c8.29,0,14.86-3.29,23.86-9.43c-4.86-12.57-12.72-16.86-24.86-16.86c-11,0-17.43,3.71-17.43,12.86
		C1107.31,972.48,1115.89,976.19,1125.74,976.19z"/>
	<path class="st0" d="M1207.33,802.17h0.71v39.58h-0.71v-12.86l-33.58,12.43v36.01l33.58,12.29v-10.57h0.71v20.43h-0.71v-9
		l-100.3-37.01v-1l100.3-37.29V802.17z M1173.04,841.6l-47.72,17.86l47.72,17.57V841.6z"/>
	<path class="st0" d="M1204.19,737.73c0.57,0.43,5.86,3.86,5.86,12.43c0,14.43-4.86,21.43-30.43,21.43
		c-20.57,0-22.72,10.14-22.72,25.58v12h50.44v-13h0.71v39.58h-0.71v-13h-98.59v13h-0.71v-39.58c0-20.72,7.29-35.29,25.43-35.29
		c14.57,0,21.72,11.43,23,27.29c1.43-19.72,9-31.72,29.72-31.72c15.43,0,22.29-1.43,22.29-9.43c0-4.71-3.86-8.14-4.86-8.86
		L1204.19,737.73z M1156.18,794.02c0-15.29-11.14-18.72-22.72-18.72c-13.43,0-24.72,3.29-24.72,20.72v13.15h47.44V794.02z"/>
	<path class="st0" d="M1108.03,680h26.58v0.71c-14.72,1.71-25.86,10.86-25.86,28v7.57h98.59v-13h0.71v39.72h-0.71v-13h-98.59v7.57
		c0,17.15,11.14,26.15,25.86,28v0.71h-26.58V680z"/>
	<path class="st0" d="M1260.96,949.91c13.41,0,28.62,6.95,28.62,32.21V1006h-0.41v-7.44h-56.41v7.44h-0.41v-23.87
		C1232.35,956.86,1247.47,949.91,1260.96,949.91z M1260.96,958.17c-11.85,0-28.21,2.7-28.21,23.96v8.67h56.41v-8.67
		C1289.17,960.87,1272.74,958.17,1260.96,958.17z"/>
	<path class="st0" d="M1233.46,946.07h56.41v-7.36h0.41v22.65h-0.41v-7.44h-56.41v7.44h-0.41v-22.65h0.41V946.07z"/>
	<path class="st0" d="M1288.08,891.62c0.33,0.25,3.35,2.21,3.35,7.11c0,8.26-2.78,12.26-17.41,12.26c-11.77,0-13,5.81-13,14.64v6.87
		h28.86v-7.44h0.41v22.65h-0.41v-7.44h-56.41v7.44h-0.41v-22.65c0-11.86,4.17-20.19,14.55-20.19c8.34,0,12.43,6.54,13.16,15.62
		c0.82-11.28,5.15-18.15,17.01-18.15c8.83,0,12.75-0.82,12.75-5.4c0-2.7-2.21-4.66-2.78-5.07L1288.08,891.62z M1260.61,923.83
		c0-8.75-6.38-10.71-13-10.71c-7.69,0-14.14,1.88-14.14,11.86v7.52h27.14V923.83z"/>
	<path class="st0" d="M1272.71,860.71h17.58v44.8h-0.41v-7.36h-56.41v7.36h-0.41v-41.7h14.39v0.41
		c-8.34,0.74-13.98,4.99-13.98,14.47v11.61h26.41v-4.91c0-8.42-4.41-11.28-11.69-11.69v-0.41h23.71v0.41
		c-7.19,0.41-11.61,3.27-11.61,11.69v4.91h29.6v-14.8c0-9.48-7.85-13.9-17.17-14.39V860.71z"/>
	<path class="st0" d="M1274.75,818.52c6.7,2.29,16.35,8.42,16.35,21.91c0,18.07-13.9,28.45-29.43,28.45
		c-15.62,0-29.43-11.36-29.43-28.37c0-6.7,3.35-11.77,3.35-15.62c0-2.13-0.82-3.03-2.21-3.68v-0.41h17.58v0.41
		c-9.24,2.29-18.31,7.6-18.31,19.3c0,16.11,17.17,20.11,29.02,20.11c11.77,0,29.02-3.11,29.02-20.19c0-12.75-9.24-18.64-16.27-21.09
		L1274.75,818.52z"/>
	<path class="st0" d="M1233.05,772h15.21v0.41c-8.42,0.98-14.8,6.21-14.8,16.02v4.33h56.41v-7.44h0.41v22.73h-0.41v-7.44h-56.41
		v4.33c0,9.81,6.38,14.96,14.8,16.02v0.41h-15.21V772z"/>
	<path class="st0" d="M1261.67,725.07c15.53,0,29.43,11.36,29.43,28.37c0,17.01-13.9,28.37-29.43,28.37
		c-15.62,0-29.43-11.36-29.43-28.37C1232.24,736.44,1246.05,725.07,1261.67,725.07z M1261.67,733.33
		c-11.85,0-29.02,4.01-29.02,20.11c0,16.02,17.17,20.03,29.02,20.03c11.77,0,29.02-4.01,29.02-20.03
		C1290.69,737.34,1273.44,733.33,1261.67,733.33z"/>
	<path class="st0" d="M1288.08,680.43c0.33,0.25,3.35,2.21,3.35,7.11c0,8.26-2.78,12.26-17.41,12.26c-11.77,0-13,5.81-13,14.64v6.87
		h28.86v-7.44h0.41v22.65h-0.41v-7.44h-56.41v7.44h-0.41v-22.65c0-11.86,4.17-20.19,14.55-20.19c8.34,0,12.43,6.54,13.16,15.62
		c0.82-11.28,5.15-18.15,17.01-18.15c8.83,0,12.75-0.82,12.75-5.4c0-2.7-2.21-4.66-2.78-5.07L1288.08,680.43z M1260.61,712.64
		c0-8.75-6.38-10.71-13-10.71c-7.69,0-14.14,1.88-14.14,11.86v7.52h27.14V712.64z"/>
</g>
</svg>
