<?xml version="1.0" encoding="utf-8"?>
<!-- Generator: Adobe Illustrator 24.0.0, SVG Export Plug-In . SVG Version: 6.00 Build 0)  -->
<svg version="1.1" id="Layer_1" xmlns="http://www.w3.org/2000/svg" xmlns:xlink="http://www.w3.org/1999/xlink" x="0px" y="0px"
	 viewBox="0 0 1080 1920" style="enable-background:new 0 0 1080 1920;" xml:space="preserve">
<style type="text/css">
	.st0{fill:#286EE4;}
</style>
<g>
	<path class="st0" d="M1020.6,524.9H682.1v44.6h-2.5V433.6h2.5v44.1h336.1l-338.5-128v-3.4l336.5-128H682.1v44.1h-2.5v-90.8h2.5
		v44.2h338.5v-44.2h2.4v90.8L742,370.8l281.1,106.5v92.2h-2.5L1020.6,524.9L1020.6,524.9z"/>
	<path class="st0" d="M682.1,763.8h-2.5V627.9h2.5V672l115.3-42.7V505.7l-115.3-42.2v36.3h-2.5v-70.1h2.5v30.9l344.4,127.1v3.4
		l-344.4,128V763.8z M799.9,628.4l163.9-61.3l-163.9-60.3V628.4z"/>
	<path class="st0" d="M1023.1,920.3h-91.2v-2.5c50.5-5.9,88.8-37.3,88.8-96.2v-26H682.1v44.6h-2.5V703.9h2.5v44.6h338.5v-26
		c0-58.9-38.3-89.8-88.8-96.2V624h91.3L1023.1,920.3L1023.1,920.3z"/>
	<path class="st0" d="M1020.6,1199.4H682.1v44.6h-2.5v-136.4h2.5v44.6h172.7V982.1H682.1v44.6h-2.5V890.8h2.5V935h338.5v-44.2h2.4
		v135.9h-2.5v-44.6H857.3v170.2h163.4v-44.6h2.4v136.4h-2.5L1020.6,1199.4L1020.6,1199.4z"/>
	<path class="st0" d="M1020.6,1281.9H682.1v44.2h-2.5v-135.9h2.5v44.6h338.5v-44.6h2.4V1326h-2.5L1020.6,1281.9L1020.6,1281.9z"/>
	<path class="st0" d="M1020.6,1363.8H682.1v44.2h-2.5V1272h2.5v44.6h338.5V1272h2.4v135.9h-2.5L1020.6,1363.8L1020.6,1363.8z"/>
	<path class="st0" d="M785.1,1622.8H679.7V1354h2.5v44.2h338.5V1354h2.4v250.2h-86.3v-2.4c50-4.4,83.9-29.9,83.9-86.8v-69.7H862.2
		v29.4c0,50.5,26.5,67.7,70.2,70.2v2.4H790v-2.4c43.2-2.4,69.7-19.6,69.7-70.2v-29.4H682.1v88.8c0,56.9,47.1,83.4,103,86.3
		L785.1,1622.8L785.1,1622.8z"/>
	<path class="st0" d="M1020.6,1916.7V1872H789.1c-77.5,0-114.3-46.1-114.3-113.8c0-76,29-125.1,116.3-125.1h229.6v-44.6h2.4v135.9
		h-2.5v-44.2H791c-73.1,0-113.3,23.1-113.3,82.9c0,67.7,41.2,106.5,111.4,106.5h231.6v-44.2h2.4v91.2H1020.6z"/>
</g>
<g>
	<path class="st0" d="M161,455.8H48.9V169.6h2.6v47.4h359.6v-47.4h2.6V314h-2.6v-46.9H51.5v93.8c0,60.5,50,89.1,109.5,92.3
		L161,455.8L161,455.8z"/>
	<path class="st0" d="M51.5,672.6h-2.6V528.2h2.6v46.9L174,529.8V398.4L51.5,353.6v38.6h-2.6v-74.5h2.6v32.8l365.9,135v3.6
		l-365.9,136V672.6z M176.6,528.8l174.1-65.1l-174.1-64.1V528.8z"/>
	<path class="st0" d="M63,907.7c-2.1-1.6-21.4-14.1-21.4-45.3c0-52.6,17.7-78.2,111-78.2c75.1,0,82.9-37,82.9-93.3v-43.8h-184v47.4
		h-2.6V550.1h2.6v47.4h359.6v-47.4h2.6v144.4c0,75.6-26.6,128.7-92.8,128.7c-53.2,0-79.2-41.7-83.9-99.5
		c-5.2,71.9-32.8,115.7-108.4,115.7c-56.3,0-81.3,5.2-81.3,34.4c0,17.2,14.1,29.7,17.7,32.3L63,907.7z M238.1,702.3
		c0,55.8,40.7,68.3,82.9,68.3c49,0,90.2-12,90.2-75.6v-48h-173V702.3z"/>
	<path class="st0" d="M63,1176.6c-2.1-1.6-21.4-14.1-21.4-45.3c0-52.6,17.7-78.2,111-78.2c75.1,0,82.9-37,82.9-93.3V916h-184v47.4
		h-2.6V819.1h2.6v47.4h359.6v-47.4h2.6v144.4c0,75.6-26.6,128.7-92.8,128.7c-53.2,0-79.2-41.7-83.9-99.5
		c-5.2,71.9-32.8,115.7-108.4,115.7c-56.3,0-81.3,5.2-81.3,34.4c0,17.2,14.1,29.7,17.7,32.3L63,1176.6z M238.1,971.3
		c0,55.8,40.7,68.3,82.9,68.3c49,0,90.2-12,90.2-75.6v-48h-173V971.3z"/>
	<path class="st0" d="M231.3,1439.3c-99,0-187.6-72.4-187.6-180.9c0-108.4,88.6-180.9,187.6-180.9c99.6,0,187.6,72.5,187.6,180.9
		C419,1366.9,330.9,1439.3,231.3,1439.3z M231.3,1386.7c75.6,0,185-25.5,185-128.2c0-102.2-109.5-127.7-185-127.7
		c-75.1,0-185,25.5-185,127.7C46.3,1361.1,156.3,1386.7,231.3,1386.7z"/>
	<path class="st0" d="M411.1,1715.1v-47.4h-246c-82.3,0-121.4-49-121.4-120.9c0-80.8,30.7-132.9,123.5-132.9h243.9v-47.4h2.6v144.4
		h-2.6v-46.9H167.2c-77.7,0-120.4,24.5-120.4,88.1c0,71.9,43.8,113.1,118.3,113.1h246v-46.9h2.6v96.9L411.1,1715.1L411.1,1715.1z"/>
	<path class="st0" d="M413.8,1914.7h-2.6V1874l-190.2-101.1H51.5v47.4h-2.6v-144.4h2.6v47.4h153.2l206.4-117.8v-41.7h2.6v144.9h-2.6
		V1664l-188.7,107.4l188.7,100.1v-45.3h2.6L413.8,1914.7L413.8,1914.7z"/>
</g>
<path class="st0" d="M561.7,777.5h-1v-69h1V777.5z"/>
<g>
	<path class="st0" d="M488.1,1821.6H521v0.8c-19,1.9-31.9,11.4-31.9,33v26.5h63.8v-11c0-19.4-10.1-25.9-26.5-26.8v-0.8h53.9v0.8
		c-16.4,0.9-26.5,7.5-26.5,26.8v11h63.9V1865h0.9v51.6h-0.9v-17H489.1v17h-0.9V1821.6z"/>
	<path class="st0" d="M613.6,1704.9c0.8,0.6,7.6,5,7.6,16.2c0,18.8-6.3,28-39.7,28c-26.8,0-29.6,13.2-29.6,33.4v15.7h65.8v-17h0.9
		v51.6h-0.9v-17H489.1v17h-0.9v-51.6c0-27,9.5-46,33.2-46c19,0,28.3,14.9,30,35.6c1.9-25.7,11.7-41.4,38.8-41.4
		c20.1,0,29.1-1.9,29.1-12.3c0-6.2-5-10.6-6.3-11.6L613.6,1704.9z M551,1778.4c0-19.9-14.5-24.4-29.6-24.4c-17.5,0-32.3,4.3-32.3,27
		v17.2H551V1778.4z"/>
	<path class="st0" d="M553.4,1611c35.4,0,67.1,25.9,67.1,64.7c0,38.8-31.7,64.7-67.1,64.7c-35.6,0-67.1-25.9-67.1-64.7
		C486.3,1636.9,517.8,1611,553.4,1611z M553.4,1629.8c-27,0-66.2,9.1-66.2,45.9c0,36.5,39.2,45.7,66.2,45.7
		c26.8,0,66.2-9.1,66.2-45.7C619.6,1638.9,580.2,1629.8,553.4,1629.8z"/>
	<path class="st0" d="M488.1,1520.4h0.9v17h130.9v1.9l-124.7,87.6h122.5V1610h0.9v34.5h-0.9v-16.8H494.1l-5,3.5v13.2h-0.9v-32.8
		l102.7-73.4H489.1v16.6h-0.9V1520.4z"/>
	<path class="st0" d="M488.1,1419.9h34.7v0.9c-19.2,2.2-33.7,14.2-33.7,36.5v9.9h128.6v-17h0.9v51.8h-0.9v-17H489.1v9.9
		c0,22.4,14.5,34.1,33.7,36.5v0.9h-34.7L488.1,1419.9L488.1,1419.9z"/>
	<path class="st0" d="M578.6,1260.3h40.1v102.2h-0.9v-16.8H489.1v16.8h-0.9v-95.1H521v0.9c-19,1.7-31.9,11.4-31.9,33v26.5h60.2
		v-11.2c0-19.2-10.1-25.7-26.7-26.7v-0.9h54.1v0.9c-16.4,0.9-26.5,7.5-26.5,26.7v11.2h67.5v-33.7c0-21.6-17.9-31.7-39.2-32.8
		L578.6,1260.3L578.6,1260.3z"/>
	<path class="st0" d="M488.1,1147.3h0.9v17h130.9v1.9l-124.7,87.6h122.5V1237h0.9v34.5h-0.9v-16.8H494.1l-5,3.5v13.2h-0.9v-32.8
		l102.7-73.4H489.1v16.6h-0.9V1147.3z"/>
	<path class="st0" d="M553.4,1046.5c30.6,0,65.2,15.8,65.2,73.4v54.4h-0.9v-17H489.1v17h-0.9v-54.4
		C488.1,1062.3,522.6,1046.5,553.4,1046.5z M553.4,1065.3c-27,0-64.3,6.2-64.3,54.6v19.8h128.6v-19.8
		C617.7,1071.5,580.2,1065.3,553.4,1065.3z"/>
	<path class="st0" d="M553.4,872c30.6,0,65.2,15.8,65.2,73.5v54.4h-0.9v-17H489.1v17h-0.9v-54.4C488.1,887.9,522.6,872,553.4,872z
		 M553.4,890.8c-27,0-64.3,6.2-64.3,54.6v19.8h128.6v-19.8C617.7,897,580.2,890.8,553.4,890.8z"/>
	<path class="st0" d="M578.6,795.9h40.1v102.2h-0.9v-16.8H489.1v16.8h-0.9V803H521v0.9c-19,1.7-31.9,11.4-31.9,33v26.5h60.2v-11.2
		c0-19.2-10.1-25.7-26.7-26.7v-0.9h54.1v0.9c-16.4,0.9-26.5,7.5-26.5,26.7v11.2h67.5v-33.7c0-21.6-17.9-31.7-39.2-32.8L578.6,795.9
		L578.6,795.9z"/>
	<path class="st0" d="M489.1,697v11.7L619.8,757v1.3l-130.7,48.7v17h-0.9v-51.6h0.9v16.8l106.8-39.9l-106.8-39.5v14h-0.9V697H489.1z
		"/>
	<path class="st0" d="M578.6,625.6h40.1v102.2h-0.9v-16.8H489.1v16.8h-0.9v-95.1H521v0.9c-19,1.7-31.9,11.4-31.9,33V693h60.2v-11.2
		c0-19.2-10.1-25.7-26.7-26.7v-0.9h54.1v0.9c-16.4,0.9-26.5,7.5-26.5,26.7V693h67.5v-33.7c0-21.6-17.9-31.7-39.2-32.8L578.6,625.6
		L578.6,625.6z"/>
	<path class="st0" d="M578.6,534.4h40.1v102.3h-0.9v-17H489.1v17h-0.9v-51.6h0.9v16.8h128.6v-33.5c0-21.6-17.9-31.9-39.2-33
		L578.6,534.4L578.6,534.4z"/>
	<path class="st0" d="M553.4,434.9c35.4,0,67.1,25.9,67.1,64.7s-31.7,64.7-67.1,64.7c-35.6,0-67.1-25.9-67.1-64.7
		S517.8,434.9,553.4,434.9z M553.4,453.7c-27,0-66.2,9.1-66.2,45.9c0,36.5,39.2,45.7,66.2,45.7c26.8,0,66.2-9.1,66.2-45.7
		C619.6,462.8,580.2,453.7,553.4,453.7z"/>
	<path class="st0" d="M523.9,361.4c23.7,0,36,18.1,36,47.2v17.5h57.8v-17h0.9v51.8h-0.9v-17H489.1v17h-0.9v-49
		C488.1,380.1,500.3,361.4,523.9,361.4z M523.9,380.2c-17.5,0-34.9,4.1-34.9,31.5v14.4H559v-17C559,384.3,541.5,380.2,523.9,380.2z"
		/>
	<path class="st0" d="M578.6,283.5h40.1v102.1h-0.9v-16.8H489.1v16.8h-0.9v-95.1H521v0.9c-19,1.7-31.9,11.4-31.9,33V351h60.2v-11.2
		c0-19.2-10.1-25.7-26.7-26.7v-0.9h54.1v0.9c-16.4,0.9-26.5,7.5-26.5,26.7V351h67.5v-33.7c0-21.6-17.9-31.7-39.2-32.8L578.6,283.5
		L578.6,283.5z"/>
	<path class="st0" d="M613.6,166.8c0.8,0.6,7.6,5,7.6,16.2c0,18.8-6.3,28-39.7,28c-26.8,0-29.6,13.2-29.6,33.4V260h65.8v-17h0.9
		v51.6h-0.9v-17H489.1v17h-0.9V243c0-27,9.5-46,33.2-46c19,0,28.3,14.9,30,35.6c1.9-25.7,11.7-41.4,38.8-41.4
		c20.1,0,29.1-1.9,29.1-12.3c0-6.2-5-10.6-6.3-11.6L613.6,166.8z M551,240.2c0-19.9-14.5-24.4-29.6-24.4c-17.5,0-32.3,4.3-32.3,27
		V260H551V240.2z"/>
</g>
<g>
	<path class="st0" d="M162.3,1250.4c-0.4,1.5-3.9,19.4-19.2,19.4c-6.2,0-12.6-3.7-18.6-9.1c-5.7,4.5-12.6,7.6-22.1,7.6
		c-12.9,0-33.7-7.6-33.7-24.3c0-13.2,13.4-21.2,22.6-24.9c-5.7-8.2-8.5-13.9-8.5-21.9c0-13.8,11.6-21.5,21.9-21.5
		c8.1,0,21,4,21,15.8c0,13.5-16.5,20.6-24.2,23.4c3.1,4.4,6.9,9.4,11.4,15.7c6.7,9.1,12.7,16.7,18.1,22.5c6.7-8.6,9.5-18.9,9.5-24.2
		c0-4.2-1.8-7.3-9.9-7.3v-0.6h30.5v0.6c-8.6,0-12.1,3.2-18.1,13.5c-3.3,5.7-6.8,12.5-11.4,18.4c6.9,7.2,13.1,11.3,18.6,11.3
		c8.5,0,11.3-13.5,11.6-14.5L162.3,1250.4z M124,1260.3c-8.6-7.6-16.5-18.3-22.1-26.4c-4.1-5.9-7.5-10.6-10.3-14.5
		c-6.7,3.2-11.7,9.8-11.7,23.8c0,17.8,9.6,24.4,22.5,24.4C111.2,1267.6,118.4,1264.7,124,1260.3z M92.6,1192.9
		c0,7.5,3,13.4,8.5,21.5c11.3-4.4,15.2-11.4,15.2-22.4c0-9.9-3.3-15.7-11.6-15.7C95.9,1176.3,92.6,1184,92.6,1192.9z"/>
	<path class="st0" d="M249.3,1266.4v0.6h-35.6v-0.6h11.6l-11.2-30.2h-32.4l-11.1,30.2h9.5v0.6h-18.4v-0.6h8.1l33.3-90.3h0.9
		l33.6,90.3H249.3z M213.8,1235.5l-16.1-43l-15.8,43H213.8z"/>
	<path class="st0" d="M307.3,1263.5c-0.4,0.5-3.5,5.3-11.2,5.3c-13,0-19.3-4.4-19.3-27.4c0-18.5-9.1-20.4-23-20.4H243v45.4h11.7v0.6
		H219v-0.6h11.7v-88.8H219v-0.6h35.6c18.6,0,31.8,6.6,31.8,22.9c0,13.1-10.3,19.6-24.6,20.7c17.8,1.3,28.5,8.1,28.5,26.8
		c0,13.9,1.3,20.1,8.5,20.1c4.2,0,7.3-3.5,8-4.4L307.3,1263.5z M256.6,1220.3c13.8,0,16.9-10,16.9-20.4c0-12.1-3-22.2-18.6-22.2H243
		v42.7H256.6z"/>
	<path class="st0" d="M359.2,1177v23.9h-0.6c-1.5-13.2-9.8-23.3-25.2-23.3h-6.8v88.8h11.7v0.6h-35.8v-0.6h11.7v-88.8h-6.8
		c-15.4,0-23.5,10-25.2,23.3h-0.6V1177H359.2z"/>
	<path class="st0" d="M116.2,1314.6c0,12.1-6.3,25.8-29,25.8H65.8v-0.4h6.7v-50.8h-6.7v-0.4h21.5
		C110,1288.9,116.2,1302.5,116.2,1314.6z M108.8,1314.6c0-10.7-2.4-25.4-21.6-25.4h-7.8v50.8h7.8
		C106.4,1340,108.8,1325.2,108.8,1314.6z"/>
	<path class="st0" d="M119.7,1289.9v50.8h6.6v0.4h-20.4v-0.4h6.7v-50.8h-6.7v-0.4h20.4v0.4H119.7z"/>
	<path class="st0" d="M168.7,1339c-0.2,0.3-2,3-6.4,3c-7.4,0-11-2.5-11-15.7c0-10.6-5.2-11.7-13.2-11.7h-6.2v26h6.7v0.4h-20.4v-0.4
		h6.7v-50.8h-6.7v-0.4h20.4c10.7,0,18.2,3.8,18.2,13.1c0,7.5-5.9,11.2-14.1,11.8c10.2,0.7,16.3,4.6,16.3,15.3
		c0,7.9,0.7,11.5,4.9,11.5c2.4,0,4.2-2,4.6-2.5L168.7,1339z M139.7,1314.3c7.9,0,9.6-5.7,9.6-11.7c0-6.9-1.7-12.7-10.7-12.7h-6.8
		v24.4L139.7,1314.3L139.7,1314.3z"/>
	<path class="st0" d="M196.6,1325.2v15.8h-40.3v-0.4h6.6v-50.8h-6.6v-0.4h37.5v12.9h-0.4c-0.7-7.5-4.5-12.6-13-12.6h-10.4v23.8h4.4
		c7.6,0,10.2-4,10.5-10.5h0.4v21.3h-0.4c-0.4-6.5-2.9-10.4-10.5-10.4h-4.4v26.6h13.3c8.5,0,12.5-7.1,12.9-15.5L196.6,1325.2
		L196.6,1325.2z"/>
	<path class="st0" d="M234.5,1327c-2.1,6-7.6,14.7-19.7,14.7c-16.3,0-25.6-12.5-25.6-26.5c0-14.1,10.2-26.5,25.5-26.5
		c6,0,10.6,3,14.1,3c1.9,0,2.7-0.7,3.3-2h0.4v15.8h-0.4c-2.1-8.3-6.9-16.5-17.4-16.5c-14.5,0-18.1,15.5-18.1,26.1
		c0,10.6,2.8,26.1,18.2,26.1c11.5,0,16.8-8.3,19-14.7L234.5,1327z"/>
	<path class="st0" d="M276.4,1289.5v13.7H276c-0.9-7.6-5.6-13.3-14.4-13.3h-3.9v50.8h6.7v0.4H244v-0.4h6.7v-50.8h-3.9
		c-8.8,0-13.5,5.7-14.4,13.3H232v-13.7H276.4z"/>
	<path class="st0" d="M318.7,1315.3c0,14-10.2,26.5-25.5,26.5s-25.5-12.5-25.5-26.5c0-14.1,10.2-26.5,25.5-26.5
		S318.7,1301.2,318.7,1315.3z M311.2,1315.3c0-10.7-3.6-26.1-18.1-26.1c-14.4,0-18,15.5-18,26.1c0,10.6,3.6,26.1,18,26.1
		C307.6,1341.4,311.2,1325.9,311.2,1315.3z"/>
	<path class="st0" d="M358.8,1339c-0.2,0.3-2,3-6.4,3c-7.4,0-11-2.5-11-15.7c0-10.6-5.2-11.7-13.2-11.7H322v26h6.7v0.4h-20.4v-0.4
		h6.7v-50.8h-6.7v-0.4h20.4c10.7,0,18.2,3.8,18.2,13.1c0,7.5-5.9,11.2-14.1,11.8c10.2,0.7,16.3,4.6,16.3,15.3
		c0,7.9,0.7,11.5,4.9,11.5c2.4,0,4.2-2,4.6-2.5L358.8,1339z M329.8,1314.3c7.9,0,9.6-5.7,9.6-11.7c0-6.9-1.7-12.7-10.7-12.7H322
		v24.4L329.8,1314.3L329.8,1314.3z"/>
</g>
</svg>
