<?xml version="1.0" encoding="utf-8"?>
<!-- Generator: Adobe Illustrator 24.0.0, SVG Export Plug-In . SVG Version: 6.00 Build 0)  -->
<svg version="1.1" id="Layer_1" xmlns="http://www.w3.org/2000/svg" xmlns:xlink="http://www.w3.org/1999/xlink" x="0px" y="0px"
	 viewBox="0 0 1080 1920" style="enable-background:new 0 0 1080 1920;" xml:space="preserve">
<style type="text/css">
	.st0{fill:#286EE4;}
</style>
<g>
	<path class="st0" d="M1043.34,392.59H671.86v48.99h-2.69V292.45h2.69v48.45h368.79L669.17,200.39v-3.77l369.33-140.52H671.86v48.45
		h-2.69V4.96h2.69v48.45h371.48V4.96h2.69v99.6L737.54,223.54l308.49,116.83v101.21h-2.69V392.59z"/>
	<path class="st0" d="M671.86,654.78h-2.69V505.65h2.69v48.45l126.52-46.84V371.59l-126.52-46.3v39.84h-2.69v-76.99h2.69v33.92
		L1049.8,461.5v3.77L671.86,605.78V654.78z M801.07,506.19l179.82-67.3l-179.82-66.22V506.19z"/>
	<path class="st0" d="M1046.03,826.52H945.89v-2.69c55.45-6.46,97.45-40.92,97.45-105.52v-28.53H671.86v48.99h-2.69V589.1h2.69
		v48.99h371.48v-28.53c0-64.6-41.99-98.52-97.45-105.52v-2.69h100.14V826.52z"/>
	<path class="st0" d="M1043.34,1132.86H671.86v48.99h-2.69v-149.67h2.69v48.99h189.51V894.36H671.86v48.99h-2.69V794.22h2.69v48.45
		h371.48v-48.45h2.69v149.13h-2.69v-48.99H864.06v186.82h179.28v-48.99h2.69v149.67h-2.69V1132.86z"/>
	<path class="st0" d="M1043.34,1223.31H671.86v48.45h-2.69v-149.13h2.69v48.99h371.48v-48.99h2.69v149.13h-2.69V1223.31z"/>
	<path class="st0" d="M1043.34,1313.21H671.86v48.45h-2.69v-149.13h2.69v48.99h371.48v-48.99h2.69v149.13h-2.69V1313.21z"/>
	<path class="st0" d="M784.92,1597.47H669.17v-295.03h2.69v48.45h371.48v-48.45h2.69v274.57h-94.75v-2.69
		c54.91-4.85,92.06-32.84,92.06-95.29v-76.45h-173.9v32.3c0,55.45,29.07,74.3,76.99,76.99v2.69H790.3v-2.69
		c47.38-2.69,76.45-21.54,76.45-76.99v-32.3H671.86v97.45c0,62.45,51.68,91.52,113.06,94.75V1597.47z"/>
	<path class="st0" d="M1043.34,1919.96v-48.99H789.22c-85.06,0-125.44-50.61-125.44-124.9c0-83.45,31.76-137.29,127.6-137.29h251.96
		v-48.99h2.69v149.13h-2.69v-48.45H791.38c-80.22,0-124.36,25.3-124.36,90.99c0,74.3,45.22,116.83,122.21,116.83h254.11v-48.45h2.69
		v100.14H1043.34z"/>
</g>
<g>
	<path class="st0" d="M161.47,318.65H38.62V4.95h2.86v52h394.26v-52h2.86v158.28h-2.86v-51.43H41.48v102.85
		c0,66.28,54.85,97.71,119.99,101.14V318.65z"/>
	<path class="st0" d="M41.48,556.35h-2.86V398.07h2.86v51.43l134.28-49.71V255.79L41.48,206.65v42.28h-2.86v-81.71h2.86v36
		l401.12,147.99v4L41.48,504.35V556.35z M178.61,398.64l190.85-71.42l-190.85-70.28V398.64z"/>
	<path class="st0" d="M54.05,814.04c-2.29-1.71-23.43-15.43-23.43-49.71c0-57.71,19.43-85.71,121.71-85.71
		c82.28,0,90.85-40.57,90.85-102.28v-48H41.48v52h-2.86V422.07h2.86v52h394.26v-52h2.86v158.28c0,82.85-29.14,141.13-101.71,141.13
		c-58.28,0-86.85-45.71-92-109.14c-5.71,78.85-36,126.85-118.85,126.85c-61.71,0-89.14,5.71-89.14,37.71
		c0,18.86,15.43,32.57,19.43,35.43L54.05,814.04z M246.04,588.91c0,61.14,44.57,74.85,90.85,74.85c53.71,0,98.85-13.14,98.85-82.85
		v-52.57h-189.7V588.91z"/>
	<path class="st0" d="M54.05,1108.89c-2.29-1.71-23.43-15.43-23.43-49.71c0-57.71,19.43-85.71,121.71-85.71
		c82.28,0,90.85-40.57,90.85-102.28v-48H41.48v52h-2.86V716.91h2.86v52h394.26v-52h2.86v158.28c0,82.85-29.14,141.13-101.71,141.13
		c-58.28,0-86.85-45.71-92-109.14c-5.71,78.85-36,126.85-118.85,126.85c-61.71,0-89.14,5.71-89.14,37.71
		c0,18.86,15.43,32.57,19.43,35.43L54.05,1108.89z M246.04,883.76c0,61.14,44.57,74.85,90.85,74.85c53.71,0,98.85-13.14,98.85-82.85
		v-52.57h-189.7V883.76z"/>
	<path class="st0" d="M238.61,1396.87c-108.57,0-205.7-79.42-205.7-198.27c0-118.85,97.14-198.27,205.7-198.27
		c109.14,0,205.7,79.42,205.7,198.27C444.31,1317.45,347.74,1396.87,238.61,1396.87z M238.61,1339.16
		c82.85,0,202.85-28,202.85-140.56c0-111.99-119.99-139.99-202.85-139.99c-82.28,0-202.85,28-202.85,139.99
		C35.76,1311.16,156.33,1339.16,238.61,1339.16z"/>
	<path class="st0" d="M435.74,1699.13v-52h-269.7c-90.28,0-133.13-53.71-133.13-132.56c0-88.57,33.71-145.71,135.42-145.71h267.41
		v-52h2.86v158.28h-2.86v-51.43H168.33c-85.14,0-131.99,26.86-131.99,96.57c0,78.85,48,123.99,129.71,123.99h269.7v-51.43h2.86
		v106.28H435.74z"/>
	<path class="st0" d="M438.6,1917.97h-2.86v-44.57l-208.56-110.85H41.48v52h-2.86v-158.28h2.86v52h167.99l226.27-129.14v-45.71h2.86
		v158.85h-2.86v-49.14l-206.85,117.71l206.85,109.71v-49.71h2.86V1917.97z"/>
</g>
<path class="st0" d="M627.62,104.19H591.7v-0.82c20.81-2.04,34.89-12.45,34.89-36.12V38.28h-69.79v12.04
	c0,21.22,11.02,28.36,28.98,29.38v0.82h-58.97V79.7c17.96-1.02,28.98-8.16,28.98-29.38V38.28H485.8v18.37h-1.02V0.12h1.02v18.57
	h140.8V0.12h1.02V104.19z"/>
<path class="st0" d="M490.29,231.92c-0.82-0.61-8.37-5.51-8.37-17.75c0-20.61,6.94-30.61,43.46-30.61
	c29.38,0,32.44-14.49,32.44-36.53V129.9H485.8v18.57h-1.02V91.94h1.02v18.57h140.8V91.94h1.02v56.52c0,29.59-10.41,50.4-36.32,50.4
	c-20.81,0-31.02-16.32-32.85-38.97c-2.04,28.16-12.86,45.3-42.44,45.3c-22.04,0-31.83,2.04-31.83,13.47
	c0,6.73,5.51,11.63,6.94,12.65L490.29,231.92z M558.85,151.53c0,21.83,15.92,26.73,32.45,26.73c19.18,0,35.3-4.69,35.3-29.59V129.9
	h-67.75V151.53z"/>
<path class="st0" d="M556.2,334.77c-38.77,0-73.46-28.36-73.46-70.81c0-42.44,34.69-70.81,73.46-70.81
	c38.97,0,73.46,28.36,73.46,70.81C629.66,306.41,595.17,334.77,556.2,334.77z M556.2,314.16c29.59,0,72.44-10,72.44-50.2
	c0-39.99-42.85-49.99-72.44-49.99c-29.38,0-72.44,10-72.44,49.99C483.76,304.16,526.81,314.16,556.2,314.16z"/>
<path class="st0" d="M627.62,433.95h-1.02v-18.57H483.35v-2.04l136.51-95.91H485.8v18.37h-1.02v-37.75h1.02v18.37h135.29l5.51-3.88
	v-14.49h1.02v35.91l-112.43,80.4H626.6v-18.16h1.02V433.95z"/>
<path class="st0" d="M627.62,543.93h-37.95v-1.02c21.02-2.45,36.93-15.51,36.93-40V492.1H485.8v18.57h-1.02v-56.73h1.02v18.57h140.8
	V461.7c0-24.49-15.92-37.34-36.93-39.99v-1.02h37.95V543.93z"/>
<path class="st0" d="M550.69,610.86h-1.02v-68.97h1.02V610.86z"/>
<path class="st0" d="M528.65,718.6h-43.87V606.78h1.02v18.36h140.8v-18.36h1.02v104.07H591.7v-1.02
	c20.81-1.84,34.89-12.45,34.89-36.12v-28.98h-65.91v12.24c0,21.02,11.02,28.16,29.18,29.18v1.02h-59.18v-1.02
	c17.96-1.02,28.98-8.16,28.98-29.18v-12.24H485.8v36.93c0,23.67,19.59,34.69,42.85,35.91V718.6z"/>
<path class="st0" d="M627.62,842.26h-1.02v-18.57H483.35v-2.04l136.51-95.91H485.8v18.37h-1.02v-37.75h1.02v18.37h135.29l5.51-3.88
	v-14.49h1.02v35.91l-112.43,80.4H626.6v-18.16h1.02V842.26z"/>
<path class="st0" d="M556.2,952.65c-33.47,0-71.42-17.34-71.42-80.4v-59.58h1.02v18.57h140.8v-18.57h1.02v59.58
	C627.62,935.31,589.87,952.65,556.2,952.65z M556.2,932.05c29.59,0,70.4-6.73,70.4-59.79v-21.63H485.8v21.63
	C485.8,925.31,526.81,932.05,556.2,932.05z"/>
<path class="st0" d="M556.2,1143.65c-33.47,0-71.42-17.34-71.42-80.4v-59.58h1.02v18.57h140.8v-18.57h1.02v59.58
	C627.62,1126.31,589.87,1143.65,556.2,1143.65z M556.2,1123.04c29.59,0,70.4-6.73,70.4-59.79v-21.63H485.8v21.63
	C485.8,1116.31,526.81,1123.04,556.2,1123.04z"/>
<path class="st0" d="M528.65,1226.91h-43.87v-111.82h1.02v18.37h140.8v-18.37h1.02v104.07H591.7v-1.02
	c20.81-1.84,34.89-12.45,34.89-36.12v-28.98h-65.91v12.24c0,21.02,11.02,28.16,29.18,29.18v1.02h-59.18v-1.02
	c17.96-1.02,28.98-8.16,28.98-29.18v-12.24H485.8v36.93c0,23.67,19.59,34.69,42.85,35.91V1226.91z"/>
<path class="st0" d="M626.6,1335.26v-12.86l-143.04-52.85v-1.43l143.04-53.26v-18.57h1.02v56.52h-1.02v-18.36l-116.92,43.67
	l116.92,43.26v-15.3h1.02v29.18H626.6z"/>
<path class="st0" d="M528.65,1413.42h-43.87v-111.82h1.02v18.37h140.8v-18.37h1.02v104.07H591.7v-1.02
	c20.81-1.84,34.89-12.45,34.89-36.12v-28.98h-65.91v12.24c0,21.02,11.02,28.16,29.18,29.18v1.02h-59.18v-1.02
	c17.96-1.02,28.98-8.16,28.98-29.18v-12.24H485.8v36.93c0,23.67,19.59,34.69,42.85,35.91V1413.42z"/>
<path class="st0" d="M528.65,1513.2h-43.87v-112.03h1.02v18.57h140.8v-18.57h1.02v56.52h-1.02v-18.37H485.8v36.73
	c0,23.67,19.59,34.89,42.85,36.12V1513.2z"/>
<path class="st0" d="M556.2,1622.17c-38.77,0-73.46-28.36-73.46-70.81s34.69-70.81,73.46-70.81c38.97,0,73.46,28.36,73.46,70.81
	S595.17,1622.17,556.2,1622.17z M556.2,1601.56c29.59,0,72.44-10,72.44-50.2c0-40-42.85-49.99-72.44-49.99
	c-29.38,0-72.44,10-72.44,49.99C483.76,1591.56,526.81,1601.56,556.2,1601.56z"/>
<path class="st0" d="M588.44,1702.57c-25.92,0-39.38-19.79-39.38-51.63v-19.18H485.8v18.57h-1.02v-56.73h1.02v18.57h140.8v-18.57
	h1.02v53.67C627.62,1682.16,614.35,1702.57,588.44,1702.57z M588.44,1681.96c19.18,0,38.16-4.49,38.16-34.49v-15.71h-76.52v18.57
	C550.08,1677.47,569.26,1681.96,588.44,1681.96z"/>
<path class="st0" d="M528.65,1787.86h-43.87v-111.82h1.02v18.37h140.8v-18.37h1.02v104.07H591.7v-1.02
	c20.81-1.84,34.89-12.45,34.89-36.12v-28.98h-65.91v12.24c0,21.02,11.02,28.16,29.18,29.18v1.02h-59.18v-1.02
	c17.96-1.02,28.98-8.16,28.98-29.18v-12.24H485.8v36.93c0,23.67,19.59,34.69,42.85,35.91V1787.86z"/>
<path class="st0" d="M490.29,1915.61c-0.82-0.61-8.37-5.51-8.37-17.75c0-20.61,6.94-30.61,43.46-30.61
	c29.38,0,32.44-14.49,32.44-36.53v-17.14H485.8v18.57h-1.02v-56.52h1.02v18.57h140.8v-18.57h1.02v56.52
	c0,29.59-10.41,50.4-36.32,50.4c-20.81,0-31.02-16.32-32.85-38.97c-2.04,28.16-12.86,45.3-42.44,45.3
	c-22.04,0-31.83,2.04-31.83,13.47c0,6.73,5.51,11.63,6.94,12.65L490.29,1915.61z M558.85,1835.21c0,21.83,15.92,26.73,32.45,26.73
	c19.18,0,35.3-4.69,35.3-29.59v-18.77h-67.75V1835.21z"/>
<g>
	<path class="st0" d="M180.77,1188.57c-0.43,1.71-4.29,21.57-21.29,21.57c-6.86,0-14-4.14-20.72-10.14c-6.29,5-14,8.43-24.57,8.43
		c-14.29,0-37.43-8.43-37.43-27c0-14.72,14.86-23.58,25.15-27.72c-6.29-9.14-9.43-15.43-9.43-24.29c0-15.29,12.86-23.86,24.29-23.86
		c9,0,23.29,4.43,23.29,17.57c0,15-18.29,22.86-26.86,26c3.43,4.86,7.72,10.43,12.72,17.43c7.43,10.14,14.14,18.57,20.15,25
		c7.43-9.57,10.57-21,10.57-26.86c0-4.72-2-8.14-11-8.14v-0.71h33.86v0.71c-9.57,0-13.43,3.57-20.15,15
		c-3.72,6.29-7.57,13.86-12.72,20.43c7.72,8,14.57,12.57,20.72,12.57c9.43,0,12.57-15,12.86-16.15L180.77,1188.57z M138.19,1199.57
		c-9.57-8.43-18.29-20.29-24.58-29.29c-4.57-6.57-8.29-11.72-11.43-16.15c-7.43,3.57-13,10.86-13,26.43
		c0,19.72,10.72,27.15,25,27.15C124.05,1207.72,132.05,1204.43,138.19,1199.57z M103.33,1124.7c0,8.29,3.29,14.86,9.43,23.86
		c12.57-4.86,16.86-12.72,16.86-24.86c0-11-3.71-17.43-12.86-17.43C107.05,1106.27,103.33,1114.84,103.33,1124.7z"/>
	<path class="st0" d="M277.36,1206.29v0.71h-39.58v-0.71h12.86l-12.43-33.58H202.2l-12.29,33.58h10.57v0.71h-20.43v-0.71h9
		l37.01-100.3h1l37.29,100.3H277.36z M237.93,1172l-17.86-47.72L202.49,1172H237.93z"/>
	<path class="st0" d="M341.8,1203.14c-0.43,0.57-3.86,5.86-12.43,5.86c-14.43,0-21.43-4.86-21.43-30.43
		c0-20.57-10.14-22.72-25.58-22.72h-12v50.44h13v0.71h-39.58v-0.71h13v-98.59h-13v-0.71h39.58c20.72,0,35.29,7.29,35.29,25.43
		c0,14.57-11.43,21.72-27.29,23c19.72,1.43,31.72,9,31.72,29.72c0,15.43,1.43,22.29,9.43,22.29c4.71,0,8.14-3.86,8.86-4.86
		L341.8,1203.14z M285.5,1155.14c15.29,0,18.72-11.14,18.72-22.72c0-13.43-3.29-24.72-20.72-24.72h-13.15v47.44H285.5z"/>
	<path class="st0" d="M399.53,1106.99v26.58h-0.71c-1.71-14.72-10.86-25.86-28-25.86h-7.57v98.59h13v0.71h-39.72v-0.71h13v-98.59
		h-7.57c-17.15,0-26.15,11.14-28,25.86h-0.71v-26.58H399.53z"/>
	<path class="st0" d="M129.61,1259.92c0,13.41-6.95,28.62-32.21,28.62H73.53v-0.41h7.44v-56.41h-7.44v-0.41H97.4
		C122.66,1231.31,129.61,1246.43,129.61,1259.92z M121.35,1259.92c0-11.85-2.7-28.21-23.96-28.21h-8.67v56.41h8.67
		C118.66,1288.13,121.35,1271.7,121.35,1259.92z"/>
	<path class="st0" d="M133.46,1232.42v56.41h7.36v0.41h-22.65v-0.41h7.44v-56.41h-7.44v-0.41h22.65v0.41H133.46z"/>
	<path class="st0" d="M187.91,1287.04c-0.25,0.33-2.21,3.35-7.11,3.35c-8.26,0-12.26-2.78-12.26-17.41c0-11.77-5.81-13-14.64-13
		h-6.87v28.86h7.44v0.41h-22.65v-0.41h7.44v-56.41h-7.44v-0.41h22.65c11.86,0,20.19,4.17,20.19,14.55c0,8.34-6.54,12.43-15.62,13.16
		c11.28,0.82,18.15,5.15,18.15,17.01c0,8.83,0.82,12.75,5.4,12.75c2.7,0,4.66-2.21,5.07-2.78L187.91,1287.04z M155.69,1259.56
		c8.75,0,10.71-6.38,10.71-13c0-7.69-1.88-14.14-11.86-14.14h-7.52v27.14H155.69z"/>
	<path class="st0" d="M218.81,1271.66v17.58h-44.8v-0.41h7.36v-56.41h-7.36v-0.41h41.7v14.39h-0.41
		c-0.74-8.34-4.99-13.98-14.47-13.98h-11.61v26.41h4.91c8.42,0,11.28-4.41,11.69-11.69h0.41v23.71h-0.41
		c-0.41-7.19-3.27-11.61-11.69-11.61h-4.91v29.6h14.8c9.48,0,13.9-7.85,14.39-17.17H218.81z"/>
	<path class="st0" d="M261,1273.71c-2.29,6.7-8.42,16.35-21.91,16.35c-18.07,0-28.45-13.9-28.45-29.43
		c0-15.62,11.36-29.43,28.37-29.43c6.7,0,11.77,3.35,15.62,3.35c2.13,0,3.02-0.82,3.68-2.21h0.41v17.58h-0.41
		c-2.29-9.24-7.6-18.31-19.3-18.31c-16.11,0-20.11,17.17-20.11,29.02c0,11.77,3.11,29.02,20.19,29.02
		c12.75,0,18.64-9.24,21.09-16.27L261,1273.71z"/>
	<path class="st0" d="M307.52,1232.01v15.21h-0.41c-0.98-8.42-6.21-14.8-16.02-14.8h-4.33v56.41h7.44v0.41h-22.73v-0.41h7.44v-56.41
		h-4.33c-9.81,0-14.96,6.38-16.02,14.8h-0.41v-15.21H307.52z"/>
	<path class="st0" d="M354.45,1260.63c0,15.53-11.36,29.43-28.37,29.43s-28.37-13.9-28.37-29.43c0-15.62,11.36-29.43,28.37-29.43
		S354.45,1245.01,354.45,1260.63z M346.2,1260.63c0-11.85-4.01-29.02-20.11-29.02c-16.02,0-20.03,17.17-20.03,29.02
		c0,11.77,4.01,29.02,20.03,29.02C342.19,1289.65,346.2,1272.4,346.2,1260.63z"/>
	<path class="st0" d="M399.09,1287.04c-0.25,0.33-2.21,3.35-7.11,3.35c-8.26,0-12.26-2.78-12.26-17.41c0-11.77-5.81-13-14.64-13
		h-6.87v28.86h7.44v0.41h-22.65v-0.41h7.44v-56.41h-7.44v-0.41h22.65c11.86,0,20.19,4.17,20.19,14.55c0,8.34-6.54,12.43-15.62,13.16
		c11.28,0.82,18.15,5.15,18.15,17.01c0,8.83,0.82,12.75,5.4,12.75c2.7,0,4.66-2.21,5.07-2.78L399.09,1287.04z M366.88,1259.56
		c8.75,0,10.71-6.38,10.71-13c0-7.69-1.88-14.14-11.86-14.14h-7.52v27.14H366.88z"/>
</g>
</svg>
