<?xml version="1.0" encoding="utf-8"?>
<!-- Generator: Adobe Illustrator 24.0.0, SVG Export Plug-In . SVG Version: 6.00 Build 0)  -->
<svg version="1.1" id="Layer_1" xmlns="http://www.w3.org/2000/svg" xmlns:xlink="http://www.w3.org/1999/xlink" x="0px" y="0px"
	 viewBox="0 0 1920 1080" style="enable-background:new 0 0 1920 1080;" xml:space="preserve">
<style type="text/css">
	.st0{fill:#286EE4;}
</style>
<g>
	<path class="st0" d="M390.5,35.6v371.6h48.9v2.7H290.4v-2.7h48.5V38.3L198.3,409.8h-3.8L53.9,40.4V407h48.5v2.7H2.7V407h48.5V35.6
		H2.7v-2.7h99.7l118.9,308.6L338.1,32.9h101.2v2.7H390.5z"/>
	<path class="st0" d="M652.7,407.2v2.7H503.5v-2.7H552l-46.8-126.5H369.4l-46.3,126.5h39.8v2.7h-77v-2.7h33.9L459.4,29.2h3.8
		l140.4,377.9H652.7z M504.1,277.9L436.8,98.1l-66.2,179.8H504.1z"/>
	<path class="st0" d="M824.4,32.9V133h-2.6c-6.5-55.4-40.9-97.4-105.6-97.4h-28.5v371.6h48.9v2.7H587v-2.7h48.9V35.6h-28.5
		c-64.5,0-98.5,42-105.6,97.4h-2.7V32.9C499.1,32.9,824.4,32.9,824.4,32.9z"/>
	<path class="st0" d="M1130.8,35.6v371.6h48.9v2.7h-149.7v-2.7h48.9V217.5H892.2v189.6h48.9v2.7H792.1v-2.7h48.5V35.6h-48.5v-2.7
		h149.2v2.7h-48.9v179.3h186.8V35.6h-48.9v-2.7h149.7v2.7H1130.8z"/>
	<path class="st0" d="M1221.2,35.6v371.6h48.5v2.7h-149.2v-2.7h48.9V35.6h-48.9v-2.7h149.2v2.7H1221.2z"/>
	<path class="st0" d="M1311.1,35.6v371.6h48.5v2.7h-149.2v-2.7h48.9V35.6h-48.9v-2.7h149.2v2.7H1311.1z"/>
	<path class="st0" d="M1595.4,294v115.7h-295.1v-2.6h48.5V35.6h-48.5v-2.7h274.6v94.7h-2.7c-4.8-54.9-32.9-92.1-95.3-92.1h-76.5
		v173.9h32.3c55.4,0,74.4-29.1,77-77h2.7v156.2h-2.7c-2.7-47.4-21.5-76.5-77-76.5h-32.3v195.1h97.4c62.4,0,91.5-51.7,94.7-113
		L1595.4,294L1595.4,294z"/>
	<path class="st0" d="M1917.9,35.6h-48.9v254.2c0,85.1-50.6,125.4-125,125.4c-83.5,0-137.3-31.8-137.3-127.6v-252h-48.9v-2.7H1707
		v2.7h-48.5v251.9c0,80.3,25.3,124.4,91,124.4c74.4,0,116.8-45.3,116.8-122.2V35.5h-48.5v-2.7H1918v2.8H1917.9z"/>
</g>
<g>
	<path class="st0" d="M316.5,917.5v122.8H2.8v-2.8h52V643.2h-52v-2.8h158.3v2.8h-51.4v394.3h102.9c66.3,0,97.8-54.9,101.2-120H316.5
		L316.5,917.5z"/>
	<path class="st0" d="M554.2,1037.5v2.8H395.9v-2.8h51.4l-49.8-134.3h-144l-49.2,134.3h42.3v2.8H165v-2.8h36.1l148-401.1h4
		l149.2,401.1H554.2z M396.5,900.4l-71.4-190.8l-70.3,190.8L396.5,900.4L396.5,900.4z"/>
	<path class="st0" d="M811.9,1025c-1.7,2.2-15.5,23.4-49.8,23.4c-57.7,0-85.7-19.4-85.7-121.8c0-82.3-40.5-90.9-102.3-90.9h-48
		v201.7h52v2.8H419.9v-2.8h52V643.2h-52v-2.8h158.3c82.9,0,141.2,29.1,141.2,101.7c0,58.3-45.8,86.9-109.1,92
		c78.9,5.7,126.8,36.1,126.8,118.8c0,61.7,5.7,89.1,37.7,89.1c18.9,0,32.6-15.5,35.5-19.4L811.9,1025z M586.7,833
		c61.1,0,74.8-44.6,74.8-90.9c0-53.7-13.1-98.8-82.9-98.8h-52.5V833H586.7L586.7,833z"/>
	<path class="st0" d="M1106.8,1025c-1.7,2.2-15.5,23.4-49.8,23.4c-57.7,0-85.7-19.4-85.7-121.8c0-82.3-40.5-90.9-102.3-90.9h-48
		v201.7h52v2.8H714.8v-2.8h52V643.2h-52v-2.8h158.3c82.9,0,141.2,29.1,141.2,101.7c0,58.3-45.8,86.9-109.1,92
		c78.9,5.7,126.8,36.1,126.8,118.8c0,61.7,5.7,89.1,37.7,89.1c18.9,0,32.6-15.5,35.5-19.4L1106.8,1025z M881.6,833
		c61.1,0,74.8-44.6,74.8-90.9c0-53.7-13.1-98.8-82.9-98.8h-52.6V833H881.6L881.6,833z"/>
	<path class="st0" d="M1394.8,840.3c0,108.5-79.4,205.7-198.3,205.7s-198.3-97.2-198.3-205.7c0-109.1,79.4-205.7,198.3-205.7
		S1394.8,731.2,1394.8,840.3z M1337.1,840.3c0-82.9-28-202.9-140.6-202.9c-112,0-140,120-140,202.9c0,82.3,28,202.9,140,202.9
		C1309.1,1043.2,1337.1,922.6,1337.1,840.3z"/>
	<path class="st0" d="M1697,643.2h-52v269.7c0,90.3-53.7,133.1-132.5,133.1c-88.5,0-145.8-33.7-145.8-135.5V643.2h-52v-2.8H1473v2.8
		h-51.4v267.4c0,85.1,26.8,132.1,96.6,132.1c78.9,0,124-48,124-129.7V643.2h-51.4v-2.8H1697V643.2L1697,643.2z"/>
	<path class="st0" d="M1915.9,640.4v2.8h-44.6l-110.9,208.5v185.7h52v2.8h-158.3v-2.8h52v-168l-129.1-226.3h-45.8v-2.8h158.9v2.8
		H1641l117.7,206.9l109.7-206.9h-49.8v-2.8L1915.9,640.4L1915.9,640.4z"/>
</g>
<path class="st0" d="M102,451.4v35.9h-0.8c-2-20.8-12.4-34.9-36.2-34.9h-29v69.7h12.1c21.3,0,28.4-11,29.4-29h0.8v59h-0.8
	c-1.1-18-8.2-29-29.4-29H36.1v70h18.4v1.1H-2v-1.1h18.6V452.3H-2v-1.1L102,451.4L102,451.4z"/>
<path class="st0" d="M229.8,588.6c-0.6,0.8-5.6,8.4-17.7,8.4c-20.6,0-30.6-7-30.6-43.5c0-29.4-14.5-32.4-36.5-32.4h-17.1v72h18.6
	v1.1H89.9v-1.1h18.6V452.4H89.9v-1.1h56.5c29.6,0,50.4,10.4,50.4,36.3c0,20.8-16.3,31-39,32.9c28.1,2,45.3,12.9,45.3,42.4
	c0,22,2,31.8,13.5,31.8c6.7,0,11.6-5.6,12.6-7L229.8,588.6z M149.3,520.2c21.9,0,26.7-16,26.7-32.4c0-19.2-4.7-35.3-29.6-35.3h-18.7
	v67.7H149.3z"/>
<path class="st0" d="M332.7,522.8c0,38.8-28.4,73.4-70.8,73.4s-70.8-34.6-70.8-73.4c0-39,28.4-73.4,70.8-73.4
	C304.3,449.4,332.7,483.8,332.7,522.8z M312,522.8c0-29.6-10-72.5-50.2-72.5c-40,0-50,42.8-50,72.5c0,29.4,10,72.5,50,72.5
	C302.1,595.2,312,552.1,312,522.8z"/>
<path class="st0" d="M431.7,451.4v1.1h-18.6v143.3h-2l-95.9-136.5v134.1h18.3v1.1h-37.7v-1.1h18.3V457.9l-3.9-5.6h-14.5v-1.1h35.9
	l80.4,112.4V452.3h-18.2v-1.1h37.8V451.4z"/>
<path class="st0" d="M541.8,451.4v37.9h-1.1c-2.5-21-15.5-36.9-40-36.9H490v140.8h18.4v1.1h-56.7v-1.1h18.6V452.3h-10.8
	c-24.5,0-37.4,16-40,36.9h-1.1v-37.9h123.3V451.4z"/>
<path class="st0" d="M608.7,528.3v1.1h-68.9v-1.1H608.7z"/>
<path class="st0" d="M716.4,550.3v43.9H604.6v-1.1h18.3V452.3h-18.3v-1.1h104v35.9h-1.1c-1.9-20.8-12.4-34.9-36.2-34.9h-29v66h12.3
	c21,0,28.1-11,29.2-29.2h1.1v59.2h-1.1c-1.1-18-8.2-29-29.2-29h-12.3v73.9h36.9c23.6,0,34.6-19.6,35.9-42.8h1.2V550.3z"/>
<path class="st0" d="M840.1,451.4v1.1h-18.6v143.3h-2l-95.9-136.7v134.1H742v1.1h-37.7v-1.1h18.3V457.9l-3.9-5.6h-14.5v-1.1h36.1
	l80.4,112.4V452.3h-18.2v-1.1h37.7V451.4z"/>
<path class="st0" d="M950.5,522.8c0,33.5-17.4,71.4-80.4,71.4h-59.6v-1.1h18.6V452.3h-18.6v-1.1h59.6
	C933.2,451.4,950.5,489.1,950.5,522.8z M929.9,522.8c0-29.6-6.7-70.5-59.8-70.5h-21.6v140.8h21.6
	C923.2,593.1,929.9,552.1,929.9,522.8z"/>
<path class="st0" d="M1141.5,522.8c0,33.5-17.4,71.4-80.4,71.4h-59.6v-1.1h18.6V452.3h-18.6v-1.1h59.6
	C1124.2,451.4,1141.5,489.1,1141.5,522.8z M1121,522.8c0-29.6-6.7-70.5-59.8-70.5h-21.6v140.8h21.6
	C1114.2,593.1,1121,552.1,1121,522.8z"/>
<path class="st0" d="M1224.8,550.3v43.9h-111.8v-1.1h18.3V452.3h-18.3v-1.1h104v35.9h-1.1c-1.9-20.8-12.4-34.9-36.2-34.9h-29v66
	h12.3c21,0,28.1-11,29.2-29.2h1.1v59.2h-1.1c-1.1-18-8.2-29-29.2-29h-12.3v73.9h36.9c23.6,0,34.6-19.6,35.9-42.8h1.2V550.3z"/>
<path class="st0" d="M1333.2,452.3h-12.9l-52.8,143h-1.4l-53.3-143h-18.6v-1.1h56.5v1.1h-18.3l43.6,116.9l43.3-116.9H1304v-1.1h29.2
	V452.3L1333.2,452.3z"/>
<path class="st0" d="M1411.3,550.3v43.9h-111.8v-1.1h18.3V452.3h-18.3v-1.1h104v35.9h-1.1c-1.9-20.8-12.4-34.9-36.2-34.9h-29v66
	h12.3c21,0,28.1-11,29.2-29.2h1.1v59.2h-1.1c-1.1-18-8.2-29-29.2-29h-12.3v73.9h36.9c23.6,0,34.6-19.6,35.9-42.8h1.2V550.3z"/>
<path class="st0" d="M1511.1,550.3v43.9H1399v-1.1h18.6V452.3H1399v-1.1h56.5v1.1h-18.3v140.8h36.8c23.6,0,34.9-19.6,36.2-42.8
	H1511.1z"/>
<path class="st0" d="M1620.1,522.8c0,38.8-28.4,73.4-70.8,73.4s-70.8-34.6-70.8-73.4c0-39,28.4-73.4,70.8-73.4
	C1591.7,449.4,1620.1,483.8,1620.1,522.8z M1599.4,522.8c0-29.6-10-72.5-50.2-72.5c-40,0-50,42.8-50,72.5c0,29.4,10,72.5,50,72.5
	C1589.5,595.2,1599.4,552.1,1599.4,522.8z"/>
<path class="st0" d="M1700.5,490.5c0,25.9-19.7,39.4-51.7,39.4h-19.2v63.2h18.6v1.1h-56.7v-1.1h18.6V452.3h-18.6v-1.1h53.7
	C1680,451.4,1700.5,464.6,1700.5,490.5z M1679.9,490.5c0-19.2-4.5-38.2-34.5-38.2h-15.7v76.6h18.6
	C1675.4,528.9,1679.9,509.7,1679.9,490.5z"/>
<path class="st0" d="M1785.7,550.3v43.9h-111.8v-1.1h18.3V452.3h-18.3v-1.1h104v35.9h-1.1c-1.9-20.8-12.4-34.9-36.2-34.9h-29v66
	h12.3c21,0,28.1-11,29.2-29.2h1.1v59.2h-1.1c-1.1-18-8.2-29-29.2-29h-12.3v73.9h36.9c23.6,0,34.6-19.6,35.9-42.8h1.2V550.3z"/>
<path class="st0" d="M1913.5,588.6c-0.6,0.8-5.6,8.4-17.7,8.4c-20.6,0-30.6-7-30.6-43.5c0-29.4-14.5-32.4-36.5-32.4h-17.1v72h18.6
	v1.1h-56.5v-1.1h18.6V452.4h-18.6v-1.1h56.5c29.6,0,50.4,10.4,50.4,36.3c0,20.8-16.3,31-39,32.9c28.1,2,45.3,12.9,45.3,42.4
	c0,22,2,31.8,13.5,31.8c6.7,0,11.6-5.6,12.6-7L1913.5,588.6z M1833.1,520.2c21.9,0,26.7-16,26.7-32.4c0-19.2-4.7-35.3-29.6-35.3
	h-18.8v67.7H1833.1z"/>
<g>
	<path class="st0" d="M1186.5,898.2c1.7,0.5,21.5,4.3,21.5,21.3c0,6.9-4.1,13.9-10.2,20.7c5,6.3,8.4,13.9,8.4,24.6
		c0,14.3-8.4,37.5-27,37.5c-14.8,0-23.5-14.9-27.7-25.2c-9.1,6.3-15.5,9.5-24.2,9.5c-15.3,0-23.9-12.9-23.9-24.2
		c0-9,4.4-23.3,17.6-23.3c15,0,22.8,18.3,26,26.8c4.8-3.4,10.4-7.7,17.4-12.8c10.2-7.4,18.6-14.2,24.9-20.1
		c-9.6-7.4-21-10.5-26.8-10.5c-4.7,0-8.2,2-8.2,11h-0.7v-33.8h0.7c0,9.6,3.5,13.5,15,20.1c6.3,3.7,13.8,7.6,20.5,12.8
		c8-7.7,12.5-14.5,12.5-20.7c0-9.5-15-12.5-16.2-12.9L1186.5,898.2z M1197.5,940.8c-8.4,9.6-20.3,18.3-29.3,24.6
		c-6.6,4.6-11.7,8.3-16.2,11.5c3.5,7.4,10.9,13,26.5,13c19.7,0,27.2-10.8,27.2-24.9C1205.6,955,1202.3,946.9,1197.5,940.8z
		 M1122.6,975.7c8.3,0,14.9-3.3,23.9-9.5c-4.8-12.5-12.8-16.9-24.8-16.9c-11,0-17.4,3.7-17.4,12.9
		C1104.2,971.9,1112.7,975.7,1122.6,975.7z"/>
	<path class="st0" d="M1204.2,801.7h0.7v39.6h-0.7v-12.9l-33.6,12.4v36.1l33.6,12.3v-10.5h0.7v20.3h-0.7v-9l-100.2-37V852
		l100.2-37.2V801.7z M1169.9,841l-47.8,17.9l47.8,17.6V841z"/>
	<path class="st0" d="M1201,737.2c0.6,0.5,5.9,3.9,5.9,12.4c0,14.4-4.8,21.4-30.4,21.4c-20.6,0-22.7,10.2-22.7,25.5v12.1h50.5v-13
		h0.7v39.6h-0.7v-13h-98.6v13h-0.7v-39.6c0-20.7,7.3-35.3,25.4-35.3c14.5,0,21.8,11.5,23.1,27.3c1.4-19.7,9-31.7,29.7-31.7
		c15.5,0,22.3-1.4,22.3-9.5c0-4.7-3.9-8.2-4.8-8.9L1201,737.2z M1153,793.5c0-15.3-11.1-18.7-22.7-18.7c-13.5,0-24.7,3.3-24.7,20.7
		v13.1h47.4V793.5z"/>
	<path class="st0" d="M1104.9,679.4h26.6v0.7c-14.8,1.7-25.9,10.9-25.9,28v7.6h98.6v-13h0.7v39.7h-0.7v-13h-98.6v7.6
		c0,17.1,11.1,26.1,25.9,28v0.7h-26.6V679.4z"/>
	<path class="st0" d="M1257.7,949.3c13.4,0,28.6,7,28.6,32.2v23.9h-0.4v-7.4h-56.4v7.4h-0.4v-23.9
		C1229.1,956.3,1244.3,949.3,1257.7,949.3z M1257.7,957.6c-11.8,0-28.3,2.7-28.3,24v8.6h56.4v-8.6
		C1286,960.3,1269.6,957.6,1257.7,957.6z"/>
	<path class="st0" d="M1230.3,945.5h56.4v-7.3h0.4v22.7h-0.4v-7.6h-56.4v7.4h-0.4v-22.7h0.4V945.5z"/>
	<path class="st0" d="M1284.9,891c0.4,0.2,3.3,2.2,3.3,7.1c0,8.3-2.8,12.3-17.4,12.3c-11.8,0-13,5.8-13,14.7v6.9h28.8v-7.4h0.4v22.7
		h-0.4v-7.4h-56.4v7.4h-0.4v-22.7c0-11.8,4.1-20.2,14.5-20.2c8.4,0,12.4,6.5,13.1,15.6c0.8-11.2,5.2-18.2,17-18.2
		c8.9,0,12.8-0.8,12.8-5.4c0-2.7-2.2-4.6-2.8-5.1L1284.9,891z M1257.4,923.3c0-8.7-6.4-10.8-13-10.8c-7.7,0-14.2,1.9-14.2,11.8v7.6
		h27.2V923.3z"/>
	<path class="st0" d="M1269.6,860.2h17.6V905h-0.4v-7.3h-56.4v7.3h-0.4v-41.7h14.4v0.4c-8.4,0.7-13.9,5-13.9,14.4v11.6h26.4v-5
		c0-8.4-4.4-11.2-11.7-11.7v-0.4h23.8v0.4c-7.2,0.4-11.6,3.3-11.6,11.7v5h29.6v-14.8c0-9.5-7.8-13.9-17.1-14.4L1269.6,860.2
		L1269.6,860.2z"/>
	<path class="st0" d="M1271.6,818c6.7,2.2,16.3,8.4,16.3,21.9c0,18.1-13.9,28.5-29.4,28.5c-15.6,0-29.4-11.3-29.4-28.4
		c0-6.7,3.3-11.8,3.3-15.6c0-2.1-0.8-3.1-2.2-3.7v-0.4h17.6v0.4c-9.2,2.2-18.3,7.6-18.3,19.3c0,16.1,17.1,20.1,29,20.1
		s29-3.1,29-20.2c0-12.8-9.2-18.7-16.3-21L1271.6,818z"/>
	<path class="st0" d="M1229.8,771.4h15.3v0.4c-8.4,0.9-14.8,6.3-14.8,16.1v4.4h56.4v-7.4h0.4v22.7h-0.4V800h-56.4v4.4
		c0,9.8,6.4,15,14.8,16.1v0.4h-15.3V771.4z"/>
	<path class="st0" d="M1258.5,724.5c15.5,0,29.4,11.3,29.4,28.4s-13.9,28.4-29.4,28.4c-15.6,0-29.4-11.3-29.4-28.4
		C1229,735.9,1242.8,724.5,1258.5,724.5z M1258.5,732.7c-11.8,0-29,4-29,20.1s17.1,20,29,20s29-4,29-20
		C1287.5,736.8,1270.3,732.7,1258.5,732.7z"/>
	<path class="st0" d="M1284.9,679.9c0.4,0.2,3.3,2.2,3.3,7.1c0,8.3-2.8,12.3-17.4,12.3c-11.8,0-13,5.8-13,14.7v6.9h28.8v-7.4h0.4
		V736h-0.4v-7.4h-56.4v7.4h-0.4v-22.7c0-11.8,4.1-20.2,14.5-20.2c8.4,0,12.4,6.5,13.1,15.6c0.8-11.2,5.2-18.2,17-18.2
		c8.9,0,12.8-0.8,12.8-5.4c0-2.7-2.2-4.6-2.8-5.1L1284.9,679.9z M1257.4,712c0-8.7-6.4-10.8-13-10.8c-7.7,0-14.2,1.9-14.2,11.8v7.6
		h27.2V712z"/>
</g>
</svg>
